<?xml version="1.0" standalone="no"?>
<!DOCTYPE svg PUBLIC "-//W3C//DTD SVG 20010904//EN"
 "http://www.w3.org/TR/2001/REC-SVG-20010904/DTD/svg10.dtd">
<svg version="1.0" xmlns="http://www.w3.org/2000/svg"
 width="2912.000000pt" height="2912.000000pt" viewBox="0 0 2912.000000 2912.000000"
 preserveAspectRatio="xMidYMid meet">
<metadata>
Created by potrace 1.14, written by Peter Selinger 2001-2017
</metadata>
<g transform="translate(0.000000,2912.000000) scale(0.100000,-0.100000)"
fill="#000000" stroke="none">
<path d="M3318 19235 c-2 -1 -29 -6 -61 -9 -48 -6 -111 -20 -222 -50 -39 -11
-190 -79 -193 -88 -2 -4 -8 -8 -14 -8 -21 0 -148 -91 -213 -153 -38 -37 -72
-67 -75 -68 -14 -1 -130 -175 -170 -254 -38 -75 -78 -178 -86 -220 -1 -5 -7
-29 -13 -52 -17 -63 -24 -145 -24 -273 1 -102 22 -265 39 -292 3 -5 8 -23 11
-41 3 -17 14 -49 24 -69 11 -21 17 -38 14 -38 -8 0 60 -124 104 -190 48 -73
63 -91 149 -177 105 -104 226 -182 397 -253 75 -32 171 -54 295 -69 74 -9 271
-7 345 4 101 15 280 69 348 106 9 5 27 15 40 21 51 28 154 95 182 118 115 95
227 230 292 350 26 49 75 163 79 183 1 4 3 10 4 15 2 4 4 12 5 17 1 6 8 30 15
55 15 50 14 46 25 145 14 120 7 264 -20 400 -8 43 -53 178 -73 222 -31 68 -94
173 -103 173 -5 0 -9 5 -9 11 0 41 -216 249 -324 311 -100 58 -273 129 -351
144 -110 21 -162 27 -277 29 -75 2 -138 2 -140 0z m219 -460 c24 -3 44 -6 45
-5 2 0 28 -8 58 -18 208 -72 355 -219 427 -427 32 -92 38 -138 37 -265 -1
-126 -19 -205 -74 -315 -43 -89 -64 -118 -130 -183 -64 -63 -168 -130 -210
-137 -3 0 -9 -3 -15 -7 -29 -18 -161 -42 -235 -41 -64 0 -161 13 -182 24 -10
5 -18 7 -18 5 0 -8 -129 49 -149 65 -9 8 -28 20 -43 28 -24 12 -158 143 -158
154 0 3 -15 30 -34 62 -37 61 -79 172 -70 186 3 5 1 9 -5 9 -5 0 -10 8 -10 18
0 9 -3 42 -6 72 -7 69 -7 129 1 141 3 5 0 9 -6 9 -8 0 -8 6 0 21 7 11 9 23 6
26 -3 4 -1 12 5 20 6 7 9 13 6 13 -12 0 34 142 64 197 38 71 71 116 124 168
48 49 124 105 141 105 7 0 14 5 16 11 2 5 10 11 18 12 8 2 20 5 25 9 24 14
124 40 174 44 30 2 56 6 58 7 4 5 90 0 140 -8z"/>
<path d="M5780 19229 c-125 -15 -158 -21 -230 -45 -86 -29 -184 -80 -226 -117
-101 -89 -136 -131 -177 -212 -71 -141 -88 -321 -46 -490 12 -49 49 -135 66
-153 7 -7 13 -18 13 -23 0 -13 84 -94 134 -128 50 -34 186 -104 186 -95 0 4 6
2 13 -3 11 -9 130 -51 167 -58 8 -2 15 -4 15 -5 0 -1 7 -3 15 -5 11 -2 227
-63 315 -89 55 -16 168 -73 196 -99 47 -44 63 -136 35 -200 -43 -99 -156 -146
-335 -141 -53 2 -107 6 -121 9 -14 3 -36 8 -50 11 -63 13 -247 85 -260 102 -3
4 -22 16 -42 26 -21 11 -38 23 -38 28 0 4 -5 8 -11 8 -6 0 -34 18 -61 40 -28
22 -54 40 -57 40 -7 0 -11 -4 -106 -120 -38 -47 -72 -87 -75 -90 -3 -3 -29
-33 -58 -67 l-52 -62 24 -23 c52 -50 148 -117 236 -164 30 -16 58 -33 62 -39
4 -5 8 -6 8 -1 0 5 6 3 13 -3 8 -6 17 -8 20 -4 4 3 7 1 7 -6 0 -7 5 -9 10 -6
6 3 10 2 10 -4 0 -5 15 -13 33 -16 17 -4 37 -10 42 -13 6 -4 15 -7 20 -9 6 -1
41 -11 78 -22 65 -19 83 -23 167 -36 167 -25 313 -22 470 10 71 14 222 69 243
88 7 7 19 13 26 15 23 5 125 94 163 142 60 76 103 169 123 268 14 63 16 83 15
147 -1 302 -132 475 -455 605 -56 22 -112 42 -129 46 -11 2 -40 10 -65 18 -25
7 -64 18 -86 24 -312 85 -402 127 -439 202 -18 36 -20 112 -3 152 55 132 274
172 510 93 76 -26 182 -76 252 -120 97 -60 91 -59 118 -22 59 81 97 138 97
146 0 5 4 11 8 13 18 7 121 168 116 180 -6 16 -145 108 -162 108 -7 0 -12 4
-12 9 0 9 -58 35 -72 32 -5 0 -8 3 -8 9 0 6 -8 10 -18 10 -10 0 -22 4 -28 9
-17 16 -193 69 -289 86 -16 3 -77 8 -135 11 -58 3 -109 7 -115 8 -5 1 -35 -1
-65 -5z"/>
<path d="M109 19148 c0 -75 0 -249 0 -335 l1 -68 340 0 340 1 0 -893 0 -893
73 0 c39 -1 150 -2 245 -3 109 -1 172 2 173 8 1 6 2 408 3 895 l1 885 335 1
c184 1 337 2 340 3 3 1 5 101 5 224 l0 222 -50 2 c-28 1 -79 2 -115 2 -36 0
-74 1 -85 1 -33 2 -37 2 -115 1 -41 0 -82 0 -90 0 -8 0 -33 0 -55 0 -22 -1
-47 -1 -55 0 -8 0 -64 0 -125 0 -60 0 -117 0 -125 0 -8 0 -31 0 -50 0 -19 -1
-42 0 -50 0 -8 1 -49 1 -90 0 -41 0 -82 0 -90 0 -8 0 -33 0 -55 0 -22 -1 -47
-1 -55 0 -8 0 -64 0 -125 0 -60 0 -117 0 -125 0 -8 0 -31 0 -50 0 -19 -1 -42
0 -50 0 -8 1 -49 0 -90 0 -41 -1 -105 0 -143 1 l-67 3 -1 -57z"/>
<path d="M7365 19200 l-80 -5 0 -1113 c0 -613 3 -1116 7 -1118 7 -4 119 -6
364 -5 l121 1 1 443 c0 243 1 445 1 450 1 4 205 6 454 5 l452 -3 1 -442 c0
-244 3 -445 6 -448 4 -4 273 -7 451 -5 l37 0 0 1120 0 1120 -43 0 c-23 0 -49
0 -57 1 -8 0 -64 0 -125 0 -60 0 -143 0 -183 0 -41 1 -76 -2 -79 -5 -4 -3 -7
-203 -7 -444 l-1 -437 -452 -1 c-451 0 -453 0 -454 20 -4 124 -1 805 4 813 4
6 3 13 -1 17 -4 4 -7 13 -7 19 0 12 -32 14 -218 18 -38 0 -71 -2 -74 -5 -3 -3
-13 -2 -22 2 -9 4 -52 5 -96 2z"/>
<path d="M9815 19200 c-1 -3 -2 -508 -2 -1122 l0 -1118 59 0 c32 -1 96 -1 143
-1 47 0 131 0 188 1 l102 0 0 343 0 342 70 72 c38 40 96 100 128 133 68 71 51
80 162 -75 128 -178 189 -260 197 -263 4 -2 8 -10 8 -18 0 -8 5 -14 10 -14 6
0 10 -6 10 -14 0 -8 3 -16 8 -18 4 -1 35 -41 69 -88 34 -47 67 -90 73 -97 5
-7 10 -15 10 -17 0 -3 7 -14 15 -23 8 -10 55 -73 105 -140 l90 -123 122 -1
c112 0 164 0 396 1 l72 0 -57 78 c-31 42 -93 127 -138 187 -45 61 -142 191
-215 290 -72 99 -136 182 -141 183 -5 2 -9 8 -9 14 0 11 -60 91 -72 96 -5 2
-8 10 -8 18 0 8 -4 14 -8 14 -4 0 -16 15 -27 33 -10 17 -25 38 -33 46 -7 8
-21 26 -30 40 -9 14 -22 30 -29 34 -7 4 -13 12 -13 17 0 5 -38 59 -85 120 -54
71 -82 117 -77 125 6 12 107 118 384 407 51 53 115 119 141 147 27 28 54 51
60 51 6 0 8 3 5 6 -3 3 26 38 66 79 151 155 236 245 236 251 0 3 -20 4 -45 2
-25 -2 -45 -1 -45 2 0 3 -93 4 -207 3 -115 -1 -226 -2 -247 -3 -43 0 -47 -4
-266 -240 -146 -158 -148 -161 -255 -276 -55 -59 -113 -122 -130 -140 -16 -17
-73 -78 -125 -134 -110 -120 -168 -180 -172 -180 -2 0 -3 217 -3 483 l0 482
-60 2 c-50 2 -128 3 -205 2 -8 0 -62 1 -118 3 -57 2 -105 1 -107 -2z"/>
<path d="M12303 19202 c-29 -2 -54 -6 -54 -10 -5 -27 -3 -2216 2 -2223 4 -8
904 -13 1617 -9 l82 0 0 219 0 219 -300 -1 c-165 -1 -300 2 -300 6 0 5 -5 5
-11 1 -13 -8 -583 -9 -596 -1 -4 3 -8 108 -8 234 l0 228 528 3 527 2 0 219 0
219 -521 0 c-286 0 -523 3 -527 7 -4 3 -7 105 -7 226 l0 219 25 1 c14 0 284 1
600 2 l575 2 0 215 0 215 -40 2 c-22 2 -60 2 -85 2 -25 0 -52 0 -60 0 -8 0
-35 0 -60 0 -25 0 -52 0 -60 0 -8 0 -143 0 -300 0 -157 0 -292 0 -300 0 -8 0
-35 0 -60 0 -25 0 -51 0 -57 0 -7 1 -20 1 -28 2 -20 0 -161 0 -182 -1 -10 0
-36 0 -58 1 -210 3 -298 4 -342 1z"/>
<path d="M14499 19201 c-12 -5 -14 -165 -14 -1123 l0 -1118 70 0 c229 -2 409
0 413 4 2 3 4 323 4 711 0 389 3 703 7 699 4 -5 52 -67 106 -139 54 -71 109
-143 122 -160 13 -16 27 -35 31 -40 40 -55 98 -131 103 -135 4 -3 17 -21 30
-40 13 -20 30 -42 37 -50 7 -8 49 -62 93 -120 43 -58 85 -112 92 -120 30 -37
223 -293 232 -308 6 -9 16 -22 23 -30 7 -8 24 -30 39 -50 15 -21 38 -49 52
-64 14 -16 22 -28 18 -28 -3 0 6 -13 21 -29 15 -16 38 -45 52 -65 l25 -35 80
-1 c44 0 137 -2 208 -3 70 -1 128 0 128 3 1 3 2 61 3 130 1 69 5 130 9 137 4
6 3 14 -2 17 -10 7 -9 25 2 43 4 6 4 14 -1 16 -9 7 -9 428 1 444 4 6 4 14 0
16 -10 7 -10 288 0 304 4 6 4 14 0 16 -10 7 -10 288 0 304 4 6 4 14 0 16 -10
6 -10 288 0 303 3 6 3 14 -1 18 -11 12 -9 236 3 236 6 0 6 3 0 8 -6 4 -11 39
-11 77 0 39 5 73 11 77 6 5 6 8 -2 8 -6 0 -10 11 -9 24 6 47 2 48 -244 47
-128 0 -234 -2 -236 -4 -5 -4 -8 -224 -4 -242 1 -5 2 -14 1 -20 -1 -5 -2 -256
-2 -557 l0 -548 -22 23 c-12 12 -33 39 -47 58 -14 20 -37 51 -52 70 -15 19
-54 70 -87 114 -33 44 -64 85 -68 90 -5 6 -44 57 -88 115 -43 58 -81 107 -85
110 -3 3 -17 21 -30 40 -13 19 -27 37 -30 40 -3 3 -22 28 -41 55 -18 28 -39
55 -45 60 -6 6 -24 28 -40 50 -16 22 -31 42 -34 45 -20 20 -70 91 -70 99 0 6
-4 11 -9 11 -4 0 -26 26 -49 58 -22 31 -49 66 -59 77 -11 11 -22 27 -26 35 -4
8 -42 60 -85 115 l-79 100 -51 5 c-29 3 -52 3 -52 0 0 -4 -22 -4 -50 0 -27 3
-54 4 -60 0 -6 -4 -33 -4 -60 0 -27 4 -54 3 -60 0 -6 -4 -30 -4 -54 0 -24 3
-49 4 -57 1z"/>
<path d="M17003 19202 l-53 -3 0 -223 c0 -170 3 -225 13 -228 6 -2 159 -4 339
-3 305 0 327 -1 331 -17 3 -10 0 -18 -6 -18 -8 0 -8 -3 -2 -8 6 -4 10 -20 10
-37 0 -16 -4 -33 -10 -37 -7 -5 -7 -8 0 -8 6 0 10 -125 10 -355 0 -230 -4
-355 -10 -355 -7 0 -7 -3 0 -8 6 -4 10 -20 10 -37 0 -16 -4 -33 -10 -37 -7 -5
-7 -8 0 -8 6 0 10 -16 10 -35 0 -19 -4 -35 -10 -35 -7 0 -7 -3 0 -8 6 -4 10
-20 10 -37 0 -16 -4 -33 -10 -37 -7 -5 -7 -8 0 -8 7 0 9 -122 8 -349 l-2 -349
77 -4 c42 -2 153 -1 247 2 l169 5 1 890 0 890 335 1 c184 1 337 2 340 3 3 0 6
100 6 221 0 245 5 229 -73 230 -24 0 -62 0 -85 1 -24 1 -50 1 -58 0 -8 0 -37
0 -65 0 -27 1 -56 1 -62 0 -7 -1 -21 -1 -30 -1 -32 -1 -588 -1 -600 -1 -7 1
-19 1 -25 2 -7 0 -38 0 -68 0 -30 0 -62 0 -70 0 -24 1 -112 0 -150 -2 -19 -1
-39 -1 -45 0 -41 3 -431 5 -472 3z"/>
<path d="M11080 15723 c0 -4 -28 -8 -63 -9 -80 -1 -188 -14 -208 -25 -9 -4
-19 -6 -22 -3 -3 3 -14 1 -24 -4 -10 -6 -31 -12 -48 -15 -57 -10 -285 -111
-285 -127 0 -4 -10 -11 -22 -14 -13 -3 -39 -19 -58 -36 -69 -60 -82 -70 -86
-70 -2 0 -16 -13 -31 -29 -77 -81 -110 -119 -141 -165 -20 -28 -39 -52 -44
-54 -4 -2 -8 -12 -8 -22 0 -10 -4 -21 -9 -25 -27 -16 -101 -212 -126 -335 -20
-93 -27 -310 -13 -388 4 -26 10 -63 13 -83 3 -20 17 -70 31 -110 13 -41 27
-82 29 -93 2 -10 9 -24 15 -30 5 -7 8 -15 5 -18 -3 -3 1 -11 10 -18 8 -7 15
-19 15 -26 0 -46 206 -297 306 -374 40 -30 112 -80 117 -80 3 0 33 -16 66 -35
34 -19 65 -35 69 -36 17 -4 38 -11 57 -20 17 -8 84 -28 150 -45 21 -5 55 -11
115 -20 114 -18 387 -5 470 21 10 3 29 8 41 10 78 15 329 126 329 146 0 5 9 9
19 9 11 0 21 3 23 8 2 4 28 27 58 51 56 46 150 139 183 182 10 13 29 38 42 54
14 17 25 36 25 43 0 6 4 12 8 12 10 0 93 174 116 243 14 42 27 93 42 162 21
99 20 318 -2 418 -3 12 -7 33 -10 47 -3 14 -7 32 -9 40 -2 8 -4 15 -5 15 -1 0
-4 14 -6 30 -3 17 -9 34 -15 39 -5 6 -9 16 -9 22 0 30 -112 244 -132 252 -4 2
-8 10 -8 18 0 8 -4 14 -9 14 -5 0 -12 8 -15 18 -12 36 -172 188 -261 246 -60
40 -201 115 -224 120 -9 2 -23 6 -31 9 -39 15 -118 39 -145 43 -34 6 -47 8
-95 18 -19 4 -65 8 -101 10 -37 2 -72 6 -78 10 -6 4 -11 4 -11 -1z m100 -469
c30 -4 58 -8 62 -8 3 -1 10 -4 14 -8 4 -5 18 -8 31 -8 13 0 23 -5 23 -12 0 -6
3 -8 6 -5 8 8 117 -48 153 -78 76 -62 184 -185 164 -185 -4 0 -3 -4 3 -8 20
-13 63 -108 85 -187 25 -94 32 -239 14 -326 -19 -94 -24 -112 -33 -134 -5 -11
-20 -44 -32 -72 -13 -29 -27 -53 -30 -53 -4 0 -13 -13 -20 -29 -13 -33 -117
-138 -173 -175 -129 -87 -298 -124 -462 -102 -71 9 -136 26 -152 39 -7 5 -13
7 -13 3 0 -20 -168 92 -222 148 -62 64 -144 193 -151 234 -1 9 -6 22 -9 28 -4
6 -9 22 -12 37 -2 15 -7 30 -9 34 -14 23 -23 214 -13 273 23 138 55 225 118
319 32 48 153 171 168 171 5 0 15 6 22 13 29 28 169 81 242 92 22 3 41 7 42 8
5 5 128 -2 184 -9z"/>
<path d="M15766 15721 c-3 -5 -24 -9 -47 -9 -22 -1 -53 -3 -67 -6 -39 -8 -95
-18 -112 -20 -8 -1 -58 -17 -110 -34 -102 -34 -271 -124 -342 -182 -61 -49
-188 -181 -218 -224 -14 -21 -30 -43 -36 -50 -43 -46 -147 -294 -158 -373 -2
-17 -6 -36 -9 -40 -11 -18 -20 -132 -19 -238 1 -94 7 -170 12 -170 1 0 3 -9 4
-20 2 -17 17 -90 21 -105 14 -50 38 -115 56 -155 12 -27 22 -53 21 -57 -1 -5
2 -8 8 -8 6 0 9 -3 8 -8 -4 -10 84 -149 124 -196 52 -62 109 -118 163 -161 28
-22 52 -43 53 -47 2 -5 10 -8 17 -8 7 0 15 -3 17 -7 12 -29 235 -129 353 -159
17 -4 32 -8 35 -9 16 -4 70 -15 105 -21 84 -14 388 -7 436 10 8 3 27 8 42 10
27 5 86 21 117 33 8 3 20 7 26 8 21 5 139 59 144 66 3 4 18 11 33 14 15 4 27
10 27 14 0 4 12 14 28 22 15 8 32 19 38 24 6 6 24 19 40 30 53 36 209 199 248
259 21 32 55 91 76 130 40 77 106 263 96 273 -3 3 -1 14 5 24 20 38 31 268 18
369 -10 74 -17 115 -19 115 -1 0 -3 7 -5 16 -34 175 -154 396 -289 532 -73 74
-187 167 -204 167 -6 0 -12 4 -14 8 -1 5 -40 27 -85 50 -106 53 -251 100 -320
105 -7 0 -13 3 -13 6 0 3 -15 6 -33 7 -67 2 -112 8 -124 17 -8 6 -13 6 -13 0
0 -10 -101 -9 -118 1 -6 3 -13 2 -16 -3z m167 -466 c23 -4 51 -7 62 -8 11 -1
22 -4 25 -7 3 -4 25 -12 49 -19 24 -7 74 -31 110 -53 68 -41 190 -154 191
-175 0 -7 4 -13 9 -13 14 0 89 -159 107 -225 25 -92 27 -283 4 -377 -44 -176
-143 -320 -290 -418 -36 -24 -67 -43 -70 -43 -3 1 -23 -6 -45 -16 -88 -39
-229 -53 -350 -36 -33 5 -63 9 -67 9 -3 1 -10 4 -14 9 -4 4 -15 7 -25 7 -41 0
-178 81 -246 147 -70 68 -136 155 -136 180 0 7 -3 13 -7 13 -10 0 -46 101 -63
178 -21 91 -15 266 12 360 46 159 136 290 258 375 52 36 130 77 155 81 7 1 18
5 24 8 12 8 69 20 101 22 12 0 24 3 26 6 7 7 127 3 180 -5z"/>
<path d="M18606 15723 c-3 -4 -32 -8 -64 -10 -58 -3 -127 -10 -127 -13 0 -1
-11 -4 -25 -6 -14 -3 -32 -6 -40 -8 -25 -5 -104 -27 -120 -33 -8 -4 -17 -7
-20 -8 -5 -1 -51 -21 -122 -52 -21 -9 -38 -20 -38 -25 0 -4 -9 -8 -19 -8 -11
0 -21 -3 -23 -7 -1 -5 -21 -20 -43 -35 -52 -34 -75 -53 -140 -111 -61 -55
-165 -178 -165 -196 0 -6 -7 -14 -15 -17 -8 -4 -15 -15 -15 -25 0 -10 -4 -19
-9 -19 -18 0 -108 -218 -128 -310 -8 -35 -15 -76 -17 -96 -1 -11 -5 -24 -8
-30 -7 -10 -2 -315 6 -354 2 -14 10 -47 16 -75 6 -27 14 -61 16 -74 3 -13 10
-34 16 -45 6 -12 11 -23 11 -26 -1 -14 94 -219 107 -230 3 -3 23 -30 45 -60
44 -60 152 -172 204 -208 153 -110 272 -165 444 -207 37 -9 71 -13 76 -10 5 3
12 1 15 -3 5 -9 41 -12 177 -16 42 -2 81 -6 87 -10 7 -4 12 -3 12 1 0 5 10 9
23 9 47 1 164 15 207 24 25 6 56 13 70 16 46 10 166 52 226 80 32 15 65 28 73
30 8 1 17 6 20 11 3 4 26 19 51 32 52 27 183 120 188 133 2 4 10 8 17 8 7 0
14 8 17 18 2 9 3 231 3 492 l-1 475 -486 3 -486 2 1 -212 2 -213 243 0 c153 0
243 -4 244 -10 4 -25 6 -282 3 -301 -3 -13 -27 -31 -72 -53 -98 -49 -111 -53
-218 -77 -86 -18 -375 -7 -375 15 0 4 -8 7 -19 8 -52 4 -178 80 -251 152 -49
48 -110 132 -110 150 0 6 -5 11 -12 11 -6 0 -8 3 -5 7 4 3 2 12 -3 18 -13 16
-51 125 -43 125 3 0 1 6 -5 13 -18 22 -37 253 -23 281 3 6 5 19 6 30 13 146
106 322 231 434 54 48 194 132 194 116 0 -3 6 -2 13 4 7 6 24 13 37 15 14 3
43 8 65 12 104 20 353 -8 400 -45 6 -5 13 -9 18 -9 28 -3 124 -59 200 -117 31
-24 59 -44 62 -44 2 0 30 33 62 72 32 40 66 82 76 93 10 11 33 37 50 59 18 21
51 61 75 89 23 28 42 53 42 57 0 9 -147 120 -159 120 -6 0 -11 3 -11 8 0 6
-152 83 -205 103 -55 21 -131 41 -162 43 -13 0 -23 3 -23 6 0 3 -8 6 -17 7
-10 0 -38 4 -63 7 -25 4 -89 9 -143 11 -54 2 -101 7 -106 9 -4 3 -11 3 -15 -1z"/>
<path d="M1035 15690 c-2 -3 -24 -55 -50 -115 -25 -61 -52 -124 -60 -140 -16
-35 -32 -76 -35 -90 -1 -5 -7 -19 -13 -30 -6 -11 -10 -23 -9 -27 1 -5 -2 -8
-8 -8 -5 0 -10 -5 -10 -10 0 -6 -7 -27 -16 -48 -10 -20 -18 -42 -19 -48 -2 -5
-14 -36 -29 -67 -14 -32 -26 -59 -26 -62 0 -2 -14 -34 -31 -71 -17 -37 -32
-72 -34 -78 -1 -6 -11 -31 -22 -56 -11 -25 -26 -62 -34 -82 -7 -21 -17 -38
-21 -38 -4 0 -7 -3 -6 -7 1 -9 -9 -40 -23 -65 -5 -10 -9 -25 -9 -33 0 -8 -4
-15 -10 -15 -5 0 -9 -3 -8 -7 1 -9 -6 -30 -28 -80 -8 -17 -14 -36 -14 -42 0
-6 -4 -11 -10 -11 -5 0 -10 -6 -10 -13 0 -11 -41 -113 -85 -212 -55 -124 -63
-145 -58 -145 3 0 1 -6 -5 -12 -5 -7 -22 -41 -36 -75 -14 -35 -38 -88 -52
-119 -14 -30 -26 -64 -27 -75 -1 -10 -4 -19 -8 -19 -4 0 -13 -15 -20 -32 -6
-18 -13 -35 -14 -38 -1 -3 -7 -18 -14 -35 -7 -16 -31 -75 -55 -130 -31 -71
-41 -104 -33 -113 7 -9 13 -9 22 -2 9 8 15 8 20 0 4 -7 12 -7 25 0 12 6 21 7
25 0 4 -6 15 -6 30 0 16 6 25 6 25 0 0 -6 10 -6 26 0 14 6 23 7 20 2 -5 -9 58
-7 73 2 5 4 12 2 16 -4 4 -7 12 -7 26 0 10 6 19 7 19 3 0 -4 13 -8 29 -8 16 0
27 3 24 7 -2 5 7 4 21 -2 16 -6 26 -6 26 0 0 6 9 6 25 0 17 -6 27 -6 32 3 8
13 123 285 127 302 1 6 9 26 17 45 9 19 26 61 39 93 21 51 27 57 54 58 222 5
909 0 916 -7 5 -5 23 -45 40 -89 17 -44 37 -93 45 -110 32 -70 55 -125 55
-134 0 -5 7 -22 15 -38 7 -15 22 -50 32 -76 14 -36 22 -47 36 -43 9 2 17 1 17
-2 0 -9 53 -7 68 2 6 3 13 2 17 -4 4 -7 12 -7 25 0 12 6 21 7 25 0 4 -6 15 -6
30 0 16 6 25 6 25 0 0 -6 10 -6 26 0 14 6 23 7 20 2 -5 -9 58 -7 73 2 5 4 12
2 16 -4 4 -7 12 -7 26 0 10 6 19 7 19 3 0 -4 14 -8 30 -8 17 0 30 4 30 8 0 4
9 3 19 -3 26 -13 36 3 19 32 -7 13 -12 25 -13 28 0 5 -38 94 -76 177 -10 24
-19 45 -19 48 0 6 -31 77 -56 129 -8 16 -14 33 -14 37 0 5 -15 40 -34 79 -19
38 -32 70 -30 70 3 0 -1 12 -9 28 -8 15 -19 38 -25 52 -14 35 -36 87 -60 140
-11 25 -36 86 -57 135 -20 50 -45 108 -55 130 -10 22 -29 67 -44 101 -14 33
-33 78 -43 100 -9 21 -17 41 -18 44 -1 3 -9 22 -18 44 -9 21 -17 40 -17 41 0
1 -10 24 -22 51 -12 27 -22 51 -23 54 0 3 -3 10 -7 15 -3 6 -29 66 -58 135
-28 69 -57 139 -65 155 -7 17 -34 80 -59 140 -26 61 -51 119 -56 130 -6 11
-23 52 -38 90 l-29 70 -227 0 c-125 0 -229 -2 -231 -5z m236 -610 c2 -14 4
-22 14 -45 79 -189 145 -350 177 -430 49 -124 65 -163 83 -197 13 -25 12 -28
-3 -29 -106 -5 -372 -2 -372 4 0 5 -6 5 -12 0 -17 -10 -108 -10 -108 0 0 5 -6
5 -12 0 -15 -9 -78 -11 -78 -2 0 3 5 10 12 17 7 7 9 12 5 12 -4 0 -2 10 5 23
6 12 13 27 14 32 1 6 34 87 74 180 39 94 73 175 74 180 3 11 14 37 41 100 9
22 18 45 19 50 2 6 13 34 26 63 21 48 38 66 41 42z"/>
<path d="M2902 15677 c-7 -9 -11 -2171 -3 -2236 1 -10 4 -11 14 -2 8 6 16 8
20 5 9 -9 67 -11 67 -2 0 4 11 3 25 -2 17 -6 25 -6 25 1 0 7 6 7 17 0 11 -6
24 -6 35 0 10 6 19 5 23 -1 4 -7 13 -7 26 0 10 6 19 7 19 3 0 -4 27 -8 59 -8
33 0 57 3 54 7 -2 5 7 4 21 -2 16 -6 27 -6 31 0 4 7 13 6 26 0 10 -6 20 -7 20
-3 1 4 2 168 3 363 l2 355 186 1 c103 1 190 -2 195 -5 5 -3 46 -62 93 -131 46
-69 126 -186 177 -260 52 -74 96 -142 100 -150 4 -8 9 -17 12 -20 4 -3 26 -35
51 -72 45 -68 77 -93 100 -78 7 5 24 4 37 -1 14 -5 23 -5 23 1 0 6 9 6 25 0
15 -6 26 -6 30 1 4 5 12 6 18 2 16 -10 48 -10 70 0 10 5 17 4 17 -3 0 -8 6 -8
20 0 14 8 20 8 20 0 0 -8 6 -8 20 0 14 8 20 8 20 0 0 -8 6 -8 20 0 14 8 20 8
20 0 0 -8 6 -8 20 0 14 8 20 8 20 0 0 -8 6 -8 20 0 14 8 20 8 20 0 0 -8 6 -8
20 0 14 8 20 8 20 0 0 -7 6 -8 18 -2 9 5 23 7 30 5 13 -5 17 23 4 29 -4 2 -27
32 -51 68 -24 36 -67 99 -96 140 -28 41 -85 125 -126 185 -41 61 -76 112 -79
115 -15 15 -170 250 -170 257 0 5 17 15 38 22 20 8 49 22 63 32 14 10 29 16
33 12 3 -3 6 -1 6 5 0 7 5 12 10 12 6 0 16 5 23 10 7 6 23 19 37 31 55 44 112
105 142 153 18 28 35 53 39 56 3 3 8 14 12 25 3 11 15 46 26 77 21 60 28 92
37 173 5 47 8 154 4 165 -1 3 -3 21 -5 40 -7 57 -10 74 -18 88 -5 6 -6 12 -3
12 3 0 -4 25 -15 56 -62 182 -191 317 -379 396 -111 47 -214 69 -332 72 -32 0
-58 3 -58 6 0 8 -48 5 -56 -3 -4 -3 -14 -2 -23 2 -9 5 -18 10 -21 12 -3 1 -15
-3 -27 -10 -16 -8 -23 -8 -23 -1 0 8 -6 8 -20 0 -14 -8 -20 -8 -20 0 0 8 -6 8
-20 0 -14 -8 -20 -8 -20 0 0 8 -6 8 -20 0 -14 -8 -20 -8 -20 0 0 8 -6 8 -20 0
-14 -8 -20 -8 -20 0 0 8 -6 8 -20 0 -14 -8 -20 -8 -20 0 0 8 -6 8 -20 0 -14
-8 -20 -8 -20 0 0 8 -6 8 -20 0 -14 -8 -20 -8 -20 0 0 8 -6 8 -20 0 -14 -8
-20 -8 -20 0 0 8 -6 8 -20 0 -14 -8 -20 -8 -20 0 0 8 -6 8 -20 0 -14 -8 -20
-8 -20 0 0 8 -6 8 -20 0 -14 -8 -20 -8 -20 0 0 8 -6 8 -20 0 -14 -8 -20 -8
-20 0 0 8 -6 8 -20 0 -14 -8 -20 -8 -20 0 0 8 -6 8 -20 0 -14 -8 -20 -8 -20 0
0 7 -6 8 -17 2 -18 -9 -50 -8 -60 2 -3 3 -14 1 -24 -4 -12 -7 -20 -7 -24 0 -4
7 -13 7 -26 0 -10 -6 -19 -7 -19 -3 0 4 -27 8 -59 8 -33 0 -57 -3 -54 -7 2 -5
-7 -4 -21 1 -17 7 -27 6 -34 -2z m1084 -450 c6 -3 26 -9 44 -12 19 -3 39 -10
46 -15 6 -6 13 -8 15 -5 10 10 105 -73 126 -110 43 -75 57 -186 34 -262 -1 -2
-1 -6 -2 -10 -3 -21 -41 -82 -71 -115 -35 -39 -116 -81 -183 -96 -22 -5 -168
-8 -325 -8 l-285 1 0 310 c0 171 1 315 2 320 4 12 581 14 599 2z"/>
<path d="M5181 15681 c-9 -6 5 -34 51 -101 35 -51 68 -101 74 -111 6 -10 18
-27 27 -37 10 -10 17 -23 17 -29 0 -6 3 -13 8 -15 6 -3 188 -267 217 -315 6
-9 20 -28 33 -42 12 -14 22 -30 22 -34 0 -5 14 -26 30 -47 17 -21 30 -41 30
-44 0 -4 8 -16 18 -27 11 -10 25 -32 33 -47 8 -15 17 -29 20 -32 3 -3 38 -53
78 -112 l73 -107 -18 -31 c-10 -16 -22 -30 -26 -30 -4 0 -8 -4 -8 -10 0 -8
-56 -97 -70 -110 -3 -3 -30 -41 -59 -85 -30 -44 -77 -113 -105 -154 -28 -40
-63 -92 -78 -115 -14 -22 -31 -47 -37 -53 -6 -7 -12 -16 -13 -20 -1 -5 -7 -14
-14 -20 -7 -7 -22 -29 -35 -50 -13 -21 -26 -40 -29 -43 -3 -3 -23 -32 -45 -65
-21 -33 -42 -61 -47 -63 -4 -2 -8 -10 -8 -18 0 -8 -7 -17 -15 -20 -8 -4 -15
-10 -15 -15 0 -5 -25 -44 -55 -88 -30 -44 -55 -85 -55 -91 0 -6 -4 -9 -9 -6
-9 6 -35 -43 -27 -51 8 -9 126 -8 126 0 0 4 9 3 19 -3 13 -7 22 -7 26 0 4 7
12 7 23 1 10 -6 23 -6 34 0 10 5 18 6 18 2 0 -10 63 -8 79 2 6 3 11 1 11 -5 0
-8 6 -8 20 0 14 8 20 8 20 0 0 -8 6 -8 20 0 14 8 20 8 20 0 0 -8 6 -8 20 0 14
8 20 8 20 0 0 -7 6 -8 19 0 14 7 22 7 26 0 5 -8 11 -7 21 1 8 6 14 8 14 4 0
-16 34 22 62 70 16 27 40 66 54 85 38 55 37 53 189 285 79 121 148 225 154
232 6 7 11 15 11 18 0 9 43 65 50 65 4 0 13 -12 21 -27 8 -16 22 -37 32 -47 9
-11 17 -26 17 -33 0 -7 5 -13 10 -13 6 0 10 -7 10 -15 0 -8 5 -15 10 -15 6 0
10 -7 10 -15 0 -8 5 -15 10 -15 6 0 10 -6 10 -14 0 -7 7 -19 15 -26 9 -7 22
-27 31 -45 8 -18 23 -41 32 -52 20 -22 39 -51 49 -73 4 -8 9 -17 13 -20 3 -3
21 -30 40 -60 19 -30 37 -57 40 -60 3 -3 21 -30 39 -60 19 -30 39 -58 45 -62
6 -5 7 -8 1 -8 -7 0 -7 -3 0 -8 6 -4 23 -27 38 -51 26 -39 32 -43 63 -39 19 2
34 2 34 -2 0 -7 54 -5 68 4 6 3 13 2 17 -4 4 -7 12 -7 25 0 12 6 21 7 25 0 4
-6 15 -6 31 0 14 6 23 7 21 2 -3 -4 35 -7 83 -7 48 0 86 3 83 7 -2 5 7 4 21
-2 16 -6 27 -6 31 0 4 7 13 6 25 0 13 -7 21 -7 25 0 5 8 11 8 20 0 9 -7 15 -8
20 -1 3 6 -25 55 -62 109 -37 54 -72 106 -78 115 -5 8 -46 68 -90 132 -44 63
-84 123 -90 132 -5 10 -15 22 -20 28 -6 7 -35 50 -65 96 -30 46 -57 86 -60 89
-3 3 -25 34 -49 70 -24 36 -91 134 -148 217 -99 145 -103 154 -91 178 7 14 99
150 203 302 105 153 198 289 207 303 10 14 23 34 30 45 7 11 15 22 18 25 14
14 70 102 70 110 0 6 4 10 8 10 5 0 17 16 28 35 10 19 21 35 24 35 3 0 19 22
35 50 17 27 33 50 38 50 4 0 7 6 7 14 0 8 6 21 13 28 22 22 51 69 41 67 -5 -1
-11 0 -14 1 -15 6 -60 5 -60 -2 0 -4 -11 -3 -25 2 -16 6 -25 6 -25 -1 0 -6 -7
-6 -17 -2 -21 10 -65 9 -82 -1 -6 -4 -11 -2 -11 4 0 8 -6 8 -20 0 -14 -8 -20
-8 -20 0 0 8 -6 8 -20 0 -14 -8 -20 -8 -20 0 0 8 -6 8 -20 0 -14 -8 -20 -8
-20 0 0 8 -6 8 -20 0 -14 -8 -20 -8 -20 0 0 8 -6 8 -20 0 -14 -8 -20 -8 -20 0
0 8 -6 8 -20 0 -14 -8 -20 -8 -20 0 0 8 -6 8 -20 0 -13 -7 -20 -7 -20 -1 0 7
-7 7 -22 0 -13 -6 -50 -53 -83 -105 -33 -52 -63 -94 -67 -94 -5 0 -7 -3 -6 -7
1 -5 -33 -62 -77 -128 -44 -66 -86 -132 -93 -147 -8 -16 -18 -28 -23 -28 -5 0
-9 -6 -9 -13 0 -7 -9 -23 -19 -34 -11 -12 -17 -23 -14 -27 3 -3 -2 -8 -11 -12
-9 -3 -16 -10 -16 -14 0 -17 -63 -109 -71 -104 -9 5 -199 292 -199 300 0 6
-40 63 -57 81 -6 7 -15 22 -18 33 -3 11 -11 20 -16 20 -5 0 -9 4 -9 10 0 8
-111 184 -157 248 -9 13 -22 21 -30 18 -7 -3 -13 -2 -13 2 0 9 -53 7 -69 -2
-5 -4 -12 -2 -16 4 -4 7 -12 7 -26 0 -10 -6 -19 -7 -19 -3 0 4 -13 8 -29 8
-16 0 -27 -3 -24 -7 2 -5 -7 -4 -21 2 -16 6 -26 6 -26 0 0 -6 -9 -6 -22 -1
-13 5 -33 5 -46 0 -13 -5 -21 -6 -19 -1 3 4 -8 7 -23 7 -15 0 -26 -3 -23 -7 2
-5 -7 -4 -21 2 -15 5 -28 6 -31 0 -3 -6 -15 -6 -30 0 -16 6 -25 6 -25 0 0 -6
-9 -6 -23 -1 -13 5 -29 6 -36 2z"/>
<path d="M7748 15676 c-10 -7 -16 -15 -13 -18 10 -9 12 -68 3 -68 -5 0 -6 -5
-3 -11 11 -16 12 -69 2 -69 -4 0 -6 -4 -2 -9 10 -17 13 -71 3 -71 -5 0 -6 -5
-3 -11 11 -16 12 -69 2 -69 -4 0 -6 -4 -2 -9 10 -17 13 -71 3 -71 -5 0 -6 -5
-3 -11 11 -16 12 -69 2 -69 -4 0 -6 -4 -2 -9 10 -17 13 -71 3 -71 -5 0 -6 -5
-3 -11 11 -16 12 -69 2 -69 -4 0 -6 -4 -2 -9 10 -17 13 -71 3 -71 -5 0 -6 -5
-3 -11 11 -16 12 -69 2 -69 -4 0 -6 -4 -2 -9 10 -17 13 -71 3 -71 -5 0 -6 -5
-3 -11 11 -16 12 -69 2 -69 -4 0 -6 -4 -2 -9 10 -17 13 -71 3 -71 -5 0 -6 -5
-3 -11 11 -16 12 -69 2 -69 -4 0 -6 -4 -2 -9 10 -17 13 -71 3 -71 -5 0 -6 -5
-3 -11 11 -16 12 -69 2 -69 -4 0 -6 -4 -2 -9 10 -17 13 -71 3 -71 -5 0 -6 -5
-3 -11 11 -16 12 -69 2 -69 -4 0 -6 -4 -2 -9 10 -17 13 -71 3 -71 -5 0 -6 -5
-3 -11 11 -16 12 -69 2 -69 -4 0 -6 -4 -2 -9 10 -17 13 -71 3 -71 -5 0 -6 -5
-3 -11 11 -16 12 -69 2 -69 -4 0 -6 -4 -2 -9 10 -17 13 -71 3 -71 -5 0 -6 -5
-2 -12 4 -6 6 -91 6 -189 -2 -159 0 -179 15 -188 11 -6 24 -6 35 0 12 6 18 6
18 0 0 -7 9 -7 25 -1 15 6 27 6 30 0 3 -6 15 -6 30 0 16 6 25 6 25 0 0 -6 10
-6 26 0 14 6 23 7 20 2 -5 -9 58 -7 73 2 5 4 12 2 16 -4 4 -7 12 -7 26 0 10 6
19 7 19 3 0 -4 13 -8 29 -8 16 0 27 3 24 7 -2 5 7 4 21 -2 16 -6 26 -6 26 0 0
6 9 6 25 0 15 -6 26 -6 30 1 4 5 12 6 18 2 16 -10 48 -10 70 0 10 5 17 4 17
-3 0 -8 6 -8 20 0 14 8 20 8 20 0 0 -8 6 -8 20 0 14 8 20 8 20 0 0 -8 6 -8 20
0 14 8 20 8 20 0 0 -8 6 -8 20 0 14 8 20 8 20 0 0 -8 6 -8 20 0 14 8 20 8 20
0 0 -8 6 -8 20 0 14 8 20 8 20 0 0 -6 5 -8 11 -5 13 9 79 12 79 5 0 -7 54 -5
68 4 6 3 13 2 17 -4 4 -7 12 -7 25 0 12 6 21 7 25 0 4 -6 15 -6 31 0 14 6 23
7 21 2 -3 -4 24 -7 59 -7 35 0 64 3 64 7 0 4 11 3 25 -2 16 -6 25 -6 25 1 0 6
6 6 18 0 11 -6 24 -6 34 0 11 6 19 6 23 -1 4 -7 13 -7 26 0 10 6 19 7 19 3 0
-4 14 -8 30 -8 17 0 30 4 30 8 0 4 10 2 23 -4 12 -7 22 -12 22 -12 0 0 10 5
23 12 15 8 22 8 22 1 0 -8 6 -8 20 0 14 8 20 8 20 0 0 -8 6 -8 20 0 13 7 20 7
20 1 0 -7 8 -7 23 0 l24 11 -1 211 -1 212 -108 0 c-59 0 -107 3 -107 7 0 4 -6
5 -14 2 -24 -9 -99 -11 -128 -3 -16 4 -28 5 -28 1 0 -4 -70 -7 -155 -7 -85 0
-155 3 -155 7 0 4 -6 5 -14 2 -24 -9 -99 -11 -128 -3 -16 4 -28 5 -28 1 0 -6
-213 -7 -327 -3 l-22 1 2 233 2 232 495 2 c272 1 509 2 526 3 l31 0 -1 218 -1
217 -520 2 c-286 1 -523 2 -527 2 -5 1 -8 102 -8 225 0 190 2 225 15 230 8 3
15 1 15 -5 0 -6 5 -7 11 -3 16 9 259 11 259 2 0 -4 6 -5 14 -2 24 9 99 11 129
3 15 -4 27 -5 27 -1 0 4 70 7 155 7 85 0 155 -3 155 -7 0 -4 6 -5 14 -2 24 9
99 11 129 3 15 -4 27 -5 27 -1 0 4 36 7 80 7 44 0 80 -4 80 -8 0 -5 5 -5 12
-1 6 4 26 7 45 6 l33 -1 0 218 c0 205 -1 219 -19 224 -10 2 -25 0 -34 -4 -10
-6 -18 -5 -22 1 -4 7 -12 7 -25 0 -10 -6 -21 -7 -24 -2 -5 9 -53 8 -62 -1 -4
-3 -15 -2 -25 3 -12 7 -20 7 -24 0 -4 -6 -13 -7 -24 -1 -9 5 -23 6 -31 1 -7
-4 -24 -4 -37 1 -14 5 -23 5 -23 -1 0 -6 -9 -6 -25 0 -15 6 -26 6 -30 -1 -4
-5 -12 -6 -18 -2 -16 10 -48 10 -69 0 -11 -5 -18 -4 -18 3 0 8 -6 8 -20 0 -14
-8 -20 -8 -20 0 0 8 -6 8 -20 0 -14 -8 -20 -8 -20 0 0 8 -6 8 -20 0 -14 -8
-20 -8 -20 0 0 8 -6 8 -20 0 -14 -8 -20 -8 -20 0 0 8 -6 8 -20 0 -14 -8 -20
-8 -20 0 0 8 -6 8 -20 0 -14 -8 -20 -8 -20 0 0 8 -6 8 -20 0 -14 -8 -20 -8
-20 0 0 8 -6 8 -20 0 -14 -8 -20 -8 -20 0 0 8 -6 8 -20 0 -14 -8 -20 -8 -20 0
0 8 -6 8 -20 0 -14 -8 -20 -8 -20 0 0 8 -6 8 -20 0 -14 -8 -20 -8 -20 0 0 8
-6 8 -20 0 -14 -8 -20 -8 -20 0 0 8 -6 8 -20 0 -14 -8 -20 -8 -20 0 0 8 -6 8
-20 0 -14 -8 -20 -8 -20 0 0 7 -6 8 -17 2 -18 -9 -50 -8 -60 2 -3 3 -14 1 -24
-4 -12 -7 -20 -7 -24 0 -4 7 -13 7 -26 0 -10 -6 -19 -7 -19 -3 0 4 -16 8 -35
8 -19 0 -35 -3 -35 -7 0 -4 -11 -3 -25 2 -16 6 -25 6 -25 -1 0 -6 -6 -6 -18 0
-11 6 -24 6 -34 0 -11 -6 -19 -6 -23 1 -4 7 -13 7 -26 0 -10 -6 -19 -7 -19 -3
0 4 -13 8 -30 8 -16 0 -30 -4 -30 -8 0 -4 -9 -3 -19 3 -13 7 -22 7 -26 0 -4
-7 -13 -7 -26 0 -13 8 -19 7 -19 0 0 -7 -6 -8 -18 -1 -12 6 -23 5 -34 -3z"/>
<path d="M12815 15677 c-20 -12 -20 -19 -20 -1121 0 -1066 1 -1109 19 -1112
10 -1 20 -5 23 -8 3 -3 14 -1 24 4 12 7 20 7 24 0 4 -7 12 -7 24 0 10 5 21 6
25 3 9 -9 56 -10 56 -1 0 4 11 3 25 -2 16 -6 25 -6 25 0 0 6 9 6 25 0 14 -5
25 -6 25 -2 0 9 47 8 56 -1 3 -3 17 -2 30 3 15 6 24 6 24 0 0 -6 10 -6 26 0
14 6 23 7 21 2 -6 -9 45 -8 61 2 6 3 13 2 17 -4 4 -7 12 -7 25 0 13 7 21 7 25
0 5 -8 11 -8 20 0 9 8 15 8 20 0 4 -6 12 -7 24 -1 10 6 23 6 31 1 8 -5 21 -5
31 1 11 6 20 5 24 -1 4 -7 12 -7 24 0 10 5 21 6 25 3 9 -9 56 -10 56 -1 0 4
11 3 25 -2 16 -6 25 -6 25 0 0 6 9 6 25 0 14 -5 25 -6 25 -2 0 9 47 8 56 -1 3
-3 17 -2 30 3 15 6 24 6 24 0 0 -6 10 -6 26 0 14 6 23 7 21 2 -6 -9 45 -8 61
2 6 3 13 2 17 -4 4 -7 12 -7 25 0 13 7 21 7 25 0 5 -8 11 -8 20 0 9 8 15 8 20
0 4 -6 12 -7 24 -1 10 6 23 6 31 1 8 -5 21 -5 31 1 11 6 20 5 24 -1 4 -7 12
-7 25 0 10 6 21 7 24 2 5 -9 53 -8 62 1 4 3 15 2 25 -3 12 -7 20 -7 24 0 4 6
13 7 23 1 9 -5 26 -5 37 -1 20 7 21 16 20 226 l0 219 -558 0 -557 0 -1 120 c0
66 0 469 0 895 0 426 -3 778 -5 782 -3 5 -14 3 -25 -2 -13 -8 -19 -7 -19 0 0
8 -6 8 -20 0 -14 -8 -20 -8 -20 0 0 8 -6 8 -20 0 -14 -8 -20 -8 -20 0 0 8 -6
8 -20 0 -14 -8 -20 -8 -20 0 0 8 -6 8 -20 0 -14 -8 -20 -8 -20 0 0 8 -6 8 -20
0 -14 -8 -20 -8 -20 0 0 8 -6 8 -20 0 -14 -8 -20 -8 -20 0 0 8 -6 8 -20 0 -14
-8 -20 -8 -20 0 0 8 -6 8 -20 0 -14 -8 -20 -8 -20 0 0 8 -6 8 -20 0 -14 -8
-20 -8 -20 0 0 7 -6 8 -19 0 -11 -6 -21 -6 -23 -1 -2 6 -12 4 -23 -2z"/>
<path d="M20201 15680 c-12 -7 -14 -176 -15 -1115 -1 -609 2 -1111 5 -1117 3
-5 9 -9 13 -9 3 1 7 1 9 0 15 -5 67 -2 67 3 0 4 11 3 25 -2 16 -6 25 -6 25 1
0 6 6 6 18 0 11 -6 24 -6 34 0 11 6 19 6 23 -1 4 -7 13 -7 26 0 10 6 19 7 19
3 0 -4 27 -8 59 -8 33 0 57 3 54 7 -2 5 7 4 21 -2 16 -6 27 -6 31 0 4 6 13 7
23 1 23 -12 57 6 44 22 -5 7 -8 21 -6 32 7 37 6 143 -1 154 -3 6 -3 11 2 11 7
0 8 44 2 145 0 11 0 50 1 87 1 37 -1 72 -5 78 -3 5 -3 10 2 10 7 0 8 44 2 145
0 11 0 50 1 87 1 37 -1 72 -5 78 -3 5 -3 10 2 10 7 0 8 44 2 145 0 11 0 50 1
87 1 37 -1 72 -5 78 -3 5 -3 10 2 10 7 0 8 44 2 145 0 11 0 50 1 87 1 37 -1
72 -5 78 -3 5 -3 10 2 10 7 0 8 44 2 145 0 11 0 50 1 87 1 37 -1 72 -5 78 -3
5 -3 10 2 10 7 0 8 44 2 145 0 11 0 50 1 87 1 37 -1 72 -5 78 -3 5 -2 10 3 10
5 0 8 15 5 33 -2 17 -5 40 -6 49 -1 19 -34 31 -43 17 -3 -5 -12 -5 -22 0 -11
6 -24 6 -34 0 -11 -6 -19 -6 -23 1 -4 7 -13 7 -26 0 -10 -6 -19 -7 -19 -3 0 4
-16 8 -35 8 -19 0 -35 -3 -35 -7 0 -4 -11 -3 -25 2 -16 6 -25 6 -25 -1 0 -6
-6 -6 -18 0 -11 6 -24 6 -34 0 -11 -6 -19 -6 -23 1 -4 7 -13 7 -26 0 -13 -8
-19 -7 -19 0 0 7 -6 8 -18 1 -12 -6 -23 -6 -28 -1 -5 5 -15 5 -23 0z"/>
<path d="M21370 15681 c0 -6 -6 -8 -14 -5 -8 3 -15 -3 -17 -13 -4 -15 -4
-2191 0 -2216 1 -5 5 -6 10 -2 5 3 12 1 16 -5 4 -7 12 -7 25 0 10 6 21 7 24 2
5 -9 53 -8 62 1 4 3 15 2 25 -3 12 -7 20 -7 24 0 4 6 13 7 24 1 9 -5 23 -6 31
-1 7 4 24 4 37 -1 14 -5 23 -5 23 1 0 6 9 6 25 0 15 -6 26 -6 30 1 4 5 11 6
17 3 14 -9 93 -9 107 0 7 5 10 102 10 294 0 158 0 310 1 338 l0 51 130 134
c103 106 133 131 140 119 5 -8 30 -45 57 -82 26 -36 82 -113 123 -170 41 -56
77 -105 80 -108 3 -3 28 -36 55 -75 56 -80 139 -191 160 -218 8 -9 15 -22 15
-27 0 -6 3 -10 8 -10 4 0 18 -18 32 -40 13 -22 28 -40 32 -40 4 0 8 -7 8 -15
0 -7 6 -18 13 -22 8 -4 22 -23 32 -40 11 -18 23 -33 27 -33 4 0 8 -5 8 -11 0
-7 12 -22 26 -35 20 -19 29 -22 45 -14 13 8 19 8 19 0 0 -8 6 -8 20 0 14 8 20
8 20 0 0 -8 6 -8 20 0 14 8 20 8 20 0 0 -8 6 -8 20 0 14 8 20 8 20 0 0 -8 6
-8 20 0 14 8 20 8 20 0 0 -6 5 -8 11 -5 13 9 79 12 79 5 0 -8 44 -5 57 3 7 4
14 3 18 -3 4 -6 12 -7 24 -1 10 6 23 6 31 1 8 -5 21 -5 31 1 10 5 20 6 23 1 2
-4 17 -7 33 -6 15 1 36 3 46 3 15 1 15 4 5 23 -7 12 -20 29 -28 39 -8 9 -26
33 -40 53 -14 20 -37 51 -52 69 -15 18 -28 37 -28 44 0 6 -4 13 -8 15 -5 2
-70 86 -145 188 -76 102 -144 193 -152 203 -8 9 -15 22 -15 27 0 6 -4 10 -10
10 -5 0 -10 7 -10 15 0 8 -4 15 -8 15 -4 0 -28 28 -52 63 -24 34 -48 67 -52
72 -12 14 -98 131 -182 245 -38 52 -89 121 -112 153 l-43 58 47 48 c46 47 377
393 477 497 28 28 70 73 93 98 24 25 49 46 55 46 5 0 8 2 5 5 -3 3 29 41 71
84 163 169 162 168 141 174 -11 3 -20 1 -20 -4 0 -5 -11 -4 -25 1 -17 6 -25 6
-25 -1 0 -6 -5 -7 -12 -3 -14 9 -213 8 -227 -1 -6 -3 -11 -2 -11 2 0 10 -53 9
-69 -2 -6 -3 -11 -2 -11 4 0 7 -8 7 -24 1 -13 -5 -27 -6 -30 -3 -9 9 -65 9
-59 1 2 -5 -7 -4 -21 2 -24 9 -31 4 -85 -53 -33 -34 -97 -101 -143 -149 -46
-49 -82 -88 -79 -88 2 0 -7 -10 -20 -23 -20 -19 -123 -129 -264 -282 -120
-130 -230 -248 -287 -309 l-67 -71 -1 75 c0 41 -1 261 -1 488 0 233 -4 410 -9
407 -5 -3 -11 -2 -14 3 -6 9 -59 8 -75 -3 -6 -3 -11 -1 -11 5 0 8 -6 8 -20 0
-14 -8 -20 -8 -20 0 0 8 -6 8 -20 0 -14 -8 -20 -8 -20 0 0 8 -6 8 -20 0 -14
-8 -20 -8 -20 0 0 8 -6 8 -20 0 -14 -8 -20 -8 -20 0 0 8 -6 8 -20 0 -14 -8
-20 -8 -20 0 0 8 -6 8 -20 0 -14 -8 -20 -8 -20 0 0 7 -6 8 -18 1 -11 -6 -24
-6 -35 0 -11 7 -17 6 -17 -1 0 -8 -6 -8 -20 0 -13 7 -20 7 -20 1z"/>
<path d="M3375 12185 c-105 -17 -117 -19 -200 -45 -68 -21 -225 -88 -235 -100
-3 -3 -23 -17 -45 -30 -22 -13 -49 -32 -59 -42 -11 -10 -23 -18 -28 -18 -8 0
-182 -173 -203 -201 -90 -122 -180 -304 -199 -401 -2 -13 -10 -45 -16 -73 -18
-76 -22 -120 -23 -235 0 -98 3 -140 19 -215 3 -16 7 -39 9 -50 4 -26 33 -123
45 -152 6 -13 15 -35 21 -50 29 -70 103 -194 155 -262 86 -110 265 -249 399
-310 39 -18 79 -36 90 -42 26 -12 203 -57 263 -66 60 -9 291 -9 357 -1 57 8
159 31 225 52 40 12 72 25 173 69 15 7 27 15 27 18 0 4 10 9 23 13 22 6 145
95 208 151 73 65 219 255 219 285 0 6 5 10 10 10 6 0 9 3 8 8 0 4 10 32 24 62
25 55 56 137 64 175 10 42 13 50 14 50 1 0 3 11 5 25 1 14 6 45 10 70 15 82 7
338 -11 389 -2 8 -7 30 -10 50 -3 19 -17 65 -30 101 -14 36 -26 70 -27 75 -7
27 -85 167 -123 221 -57 80 -175 201 -239 245 -27 19 -55 39 -61 44 -6 6 -46
28 -90 50 -43 22 -81 42 -84 45 -3 3 -9 6 -15 7 -5 1 -46 13 -89 28 -44 15
-113 33 -155 42 -99 19 -324 23 -426 8z m340 -462 c58 -14 155 -51 165 -62 3
-4 19 -13 35 -21 17 -8 66 -51 110 -95 92 -92 152 -198 184 -325 25 -100 25
-262 -1 -365 -17 -70 -63 -183 -79 -195 -3 -3 -14 -20 -23 -38 -16 -30 -94
-115 -142 -152 -21 -17 -96 -64 -104 -66 -3 0 -17 -6 -32 -12 -75 -32 -86 -35
-188 -50 -109 -17 -287 10 -356 55 -11 7 -24 10 -27 6 -4 -3 -7 -1 -7 5 0 7
-3 11 -7 10 -26 -7 -183 128 -231 197 -33 49 -84 145 -76 145 3 0 2 6 -4 13
-6 6 -10 14 -10 17 1 3 -4 21 -10 40 -6 19 -14 46 -16 60 -3 14 -5 25 -6 25
-1 0 -3 34 -4 76 -2 42 -7 82 -10 88 -4 6 -2 11 4 11 6 0 9 3 7 8 -6 9 12 125
25 162 3 8 13 36 22 61 33 92 169 279 204 279 6 0 12 4 12 9 0 14 117 77 189
101 35 11 86 23 115 26 28 3 52 7 54 9 8 7 153 -8 207 -22z"/>
<path d="M8800 12189 c-25 -4 -63 -10 -84 -13 -209 -34 -455 -165 -608 -325
-68 -70 -148 -173 -148 -191 0 -5 -4 -10 -10 -10 -5 0 -10 -6 -10 -14 0 -8 -3
-16 -8 -18 -12 -5 -78 -157 -101 -233 -39 -130 -49 -213 -46 -365 4 -190 19
-277 72 -420 24 -63 91 -200 103 -210 4 -3 22 -27 40 -55 49 -72 180 -198 263
-252 77 -50 177 -105 177 -96 0 3 6 1 13 -5 14 -11 114 -45 177 -60 129 -31
167 -35 310 -36 85 0 178 3 205 6 69 10 185 35 218 47 15 6 27 9 27 6 0 -8
196 76 269 116 71 39 184 116 234 159 l22 19 -1 478 c-1 263 -2 481 -3 486 -1
4 -219 7 -485 7 l-483 0 0 -54 c0 -30 -4 -59 -7 -65 -4 -6 -4 -11 1 -11 4 0 8
-22 8 -50 0 -27 -4 -50 -8 -50 -5 0 -5 -5 -1 -11 9 -15 11 -99 2 -99 -4 0 -5
-7 -1 -16 3 -9 6 -28 7 -43 l1 -26 240 -2 c132 0 243 -2 246 -2 7 -1 6 -317
-1 -324 -17 -16 -164 -84 -202 -93 -10 -2 -28 -6 -40 -9 -113 -27 -315 -27
-402 -1 -120 36 -205 84 -281 161 -53 55 -95 102 -95 110 0 2 -13 27 -30 55
-16 27 -27 50 -24 50 4 0 1 7 -6 15 -7 8 -9 15 -5 15 4 0 3 6 -3 13 -8 10 -14
28 -29 97 -19 87 -22 200 -8 284 7 39 11 74 9 78 -3 4 0 9 6 13 5 3 10 13 10
22 0 19 71 170 96 203 11 14 51 57 91 97 54 54 93 82 155 112 46 22 97 43 113
46 17 3 46 8 65 12 58 10 189 5 270 -11 87 -17 82 -15 220 -79 14 -7 30 -16
35 -20 36 -28 123 -90 136 -97 12 -7 28 6 70 57 30 36 59 71 64 77 6 6 28 33
50 61 22 27 47 56 55 65 14 16 36 42 69 83 12 16 11 20 -7 37 -12 11 -24 20
-27 20 -3 0 -18 11 -32 24 -33 31 -191 125 -241 144 -85 32 -202 65 -277 79
-89 16 -365 24 -435 12z"/>
<path d="M11437 12193 c-3 -2 -22 -5 -43 -8 -21 -2 -68 -11 -103 -19 -36 -8
-68 -13 -73 -10 -4 3 -8 0 -8 -5 0 -6 -8 -11 -18 -11 -10 0 -23 -5 -30 -12 -7
-7 -12 -9 -12 -5 0 4 -17 -1 -37 -12 -21 -10 -41 -19 -46 -20 -24 -3 -172 -89
-242 -141 -43 -32 -192 -187 -220 -230 -16 -25 -33 -47 -36 -50 -3 -3 -16 -25
-29 -50 -14 -25 -31 -53 -39 -62 -8 -10 -11 -18 -6 -18 4 0 3 -6 -2 -12 -12
-16 -60 -143 -67 -178 -3 -14 -10 -43 -15 -65 -23 -92 -31 -268 -17 -385 4
-30 8 -67 9 -82 1 -16 5 -28 8 -28 4 0 7 -10 7 -22 0 -68 107 -311 170 -388
12 -15 22 -31 22 -34 0 -14 126 -146 190 -200 119 -98 335 -204 470 -230 47
-10 98 -19 120 -23 14 -2 79 -5 145 -7 161 -5 269 9 410 51 28 8 55 16 60 18
6 1 12 2 15 2 3 0 16 6 30 13 14 8 28 13 33 12 4 -1 7 2 7 8 0 5 9 10 20 10
11 0 20 5 20 11 0 5 4 8 9 5 5 -3 14 1 21 9 7 8 21 15 30 15 10 0 20 4 22 8 2
5 30 27 64 49 66 45 132 101 173 147 14 16 38 42 54 58 15 16 27 31 27 33 0 2
20 32 44 67 55 80 125 227 142 301 1 4 2 8 4 10 2 2 5 18 13 59 3 15 8 31 10
35 17 27 26 280 14 384 -7 60 -48 226 -68 274 -7 17 -12 33 -11 38 1 4 -3 7
-8 7 -5 0 -9 3 -8 8 2 10 -35 86 -44 90 -5 2 -8 8 -8 14 0 6 -13 30 -30 55
-16 24 -30 46 -30 48 0 7 -76 90 -140 153 -87 86 -278 210 -349 228 -9 2 -47
15 -86 28 -122 43 -220 58 -382 61 -84 1 -154 0 -156 -2z m298 -468 c33 -8 98
-34 145 -57 116 -57 227 -168 288 -287 23 -46 42 -92 42 -102 0 -10 4 -20 8
-23 4 -2 9 -18 10 -35 1 -17 6 -41 11 -54 9 -24 8 -228 -2 -284 -3 -18 -11
-42 -17 -53 -6 -11 -8 -20 -5 -20 4 0 3 -6 -2 -12 -4 -7 -8 -19 -10 -27 -3
-23 -64 -133 -97 -176 -42 -56 -156 -164 -156 -149 0 3 -12 -4 -26 -15 -35
-28 -168 -77 -229 -86 -147 -20 -255 -6 -390 49 -27 11 -52 22 -55 25 -3 4
-18 13 -35 21 -36 18 -173 153 -198 195 -36 62 -79 159 -81 181 0 13 -5 24 -9
24 -5 0 -6 4 -2 9 3 5 2 12 -3 15 -11 7 -16 67 -15 186 1 119 3 137 22 200 46
159 140 293 266 380 46 31 125 70 136 67 3 -1 13 4 22 12 10 7 17 11 17 7 0
-3 12 -1 27 5 14 5 51 12 82 16 31 3 57 6 58 7 8 7 148 -7 198 -19z"/>
<path d="M24225 12153 c-9 -13 -13 -23 -10 -23 4 0 -1 -12 -9 -27 -8 -16 -24
-48 -34 -73 -11 -25 -39 -90 -62 -145 -23 -55 -48 -113 -55 -130 -7 -16 -27
-64 -44 -105 -18 -41 -36 -84 -41 -95 -21 -45 -152 -351 -154 -360 -2 -5 -11
-28 -21 -50 -9 -22 -35 -83 -57 -135 -22 -52 -49 -114 -60 -137 -11 -23 -20
-48 -22 -55 -1 -7 -4 -17 -8 -23 -3 -5 -31 -71 -63 -145 -31 -74 -65 -153 -74
-175 -10 -22 -35 -80 -56 -130 -21 -49 -46 -108 -56 -130 -16 -36 -39 -92 -44
-105 -4 -12 -20 -50 -47 -109 -15 -35 -28 -67 -28 -72 0 -5 38 -7 85 -6 47 1
85 0 85 -3 0 -3 55 -4 122 -3 68 1 142 2 164 3 37 0 43 3 54 33 7 17 19 46 25
62 7 17 23 55 35 85 12 30 28 69 35 85 7 17 30 73 51 125 20 52 41 99 45 104
10 11 129 14 129 3 0 -5 6 -5 13 0 16 10 107 10 107 0 0 -5 6 -5 13 0 16 10
187 10 187 0 0 -5 6 -5 13 0 17 10 107 10 107 -1 0 -5 6 -4 13 1 14 10 348 10
366 -1 6 -4 9 -12 6 -17 -4 -5 -2 -9 3 -9 6 0 13 -12 17 -27 3 -16 13 -41 20
-58 8 -16 35 -81 60 -143 25 -61 51 -124 57 -140 6 -15 12 -29 12 -32 1 -3 8
-20 16 -38 13 -29 19 -33 55 -32 22 0 47 0 55 -1 19 -1 124 0 170 2 19 1 42 1
50 0 31 -1 194 0 196 2 1 1 -6 19 -16 39 -10 20 -15 39 -12 42 3 4 0 6 -6 6
-7 0 -11 3 -10 8 1 4 -6 24 -15 46 -9 21 -17 40 -17 42 0 2 -9 26 -21 52 -12
26 -27 61 -34 77 -8 17 -22 48 -31 70 -10 22 -19 42 -19 45 -5 18 -29 75 -104
243 -16 37 -28 67 -26 67 3 0 -4 17 -15 38 -10 20 -40 87 -65 147 -25 61 -55
129 -66 152 -10 24 -19 50 -19 58 0 8 -4 15 -10 15 -5 0 -10 5 -10 11 0 12
-129 320 -140 334 -5 6 -8 12 -9 15 0 9 -13 44 -31 85 -10 22 -32 76 -51 120
-18 44 -39 91 -45 104 -7 14 -11 28 -8 33 3 4 1 8 -3 8 -5 0 -15 17 -22 38 -8
20 -24 60 -36 87 -53 118 -63 144 -57 149 3 3 0 6 -6 6 -7 0 -12 6 -13 13 0 6
-10 33 -22 58 l-22 46 -222 0 c-222 0 -223 0 -238 -24z m260 -643 c14 -36 34
-83 44 -105 10 -22 22 -51 26 -65 4 -14 18 -47 31 -75 12 -27 33 -79 47 -115
14 -36 33 -83 43 -105 10 -22 18 -45 20 -50 1 -6 11 -31 22 -55 41 -91 65 -83
-261 -83 -158 0 -289 2 -292 5 -5 5 5 32 44 123 21 47 45 108 47 115 0 3 6 18
12 33 7 16 12 33 12 38 0 5 5 9 10 9 6 0 10 7 10 15 0 8 6 29 14 47 44 101 57
133 96 230 24 60 44 107 46 105 1 -1 14 -31 29 -67z"/>
<path d="M128 12162 c-43 -2 -78 -7 -78 -12 0 -6 19 -40 43 -77 79 -123 94
-148 95 -156 1 -4 7 -14 15 -21 7 -8 33 -46 58 -85 51 -84 68 -109 172 -273
43 -68 84 -132 90 -143 7 -10 42 -66 80 -123 37 -56 67 -105 67 -108 0 -3 23
-39 50 -80 28 -41 50 -78 50 -83 0 -5 4 -11 8 -13 4 -1 25 -32 47 -68 21 -36
46 -75 56 -88 16 -20 17 -62 18 -460 1 -240 5 -440 9 -443 11 -10 92 -16 92
-6 0 4 4 6 9 3 10 -7 229 -11 236 -5 2 3 34 2 70 -1 38 -3 69 -1 72 4 4 5 6
206 6 447 l0 439 86 137 c48 76 104 167 126 202 22 35 45 68 51 75 5 6 13 18
17 26 20 40 89 144 101 152 6 4 7 8 2 8 -5 0 -2 8 6 18 24 28 178 272 178 283
0 5 7 12 15 15 8 4 15 10 15 15 0 5 21 41 46 81 26 40 67 105 92 143 24 39 62
97 84 130 l39 60 -98 5 c-54 3 -158 3 -231 0 -74 -3 -135 -3 -137 0 -2 3 -24
4 -49 2 -45 -4 -46 -5 -91 -78 -25 -41 -45 -79 -45 -84 0 -6 -4 -10 -9 -10 -5
0 -11 -8 -15 -17 -3 -10 -11 -27 -18 -38 -37 -57 -84 -134 -101 -165 -17 -30
-37 -63 -95 -155 -6 -11 -15 -27 -19 -35 -4 -8 -9 -17 -12 -20 -11 -9 -71
-111 -71 -120 0 -5 -4 -10 -8 -12 -4 -1 -14 -16 -23 -33 -23 -46 -73 -124 -80
-125 -3 0 -42 62 -87 138 -45 75 -106 178 -137 227 -30 50 -60 102 -66 118 -6
15 -15 27 -20 27 -5 0 -9 4 -9 10 0 5 -19 40 -42 77 -22 38 -55 93 -71 123
-17 30 -33 57 -37 60 -4 3 -17 23 -28 46 -11 22 -27 46 -35 52 -14 12 -316 21
-489 14z"/>
<path d="M5433 12162 c-171 -3 -166 0 -152 -84 3 -21 4 -38 0 -38 -5 0 -6
-126 0 -140 1 -3 1 -8 0 -12 -2 -14 -3 -173 -1 -183 1 -5 1 -14 0 -20 -2 -13
-2 -87 0 -100 1 -5 2 -13 1 -17 -2 -14 -3 -173 -1 -183 1 -5 1 -14 0 -20 -2
-13 -2 -87 0 -100 1 -5 2 -13 1 -17 -2 -14 -3 -173 -1 -183 1 -5 1 -14 0 -20
-2 -13 -2 -87 0 -100 1 -5 2 -13 1 -17 -2 -14 -3 -173 -1 -183 1 -5 1 -14 0
-20 -2 -13 -2 -87 0 -100 1 -5 2 -13 1 -17 -2 -14 -3 -173 -1 -183 1 -5 1 -14
0 -20 -2 -13 -2 -87 0 -100 1 -5 2 -13 1 -17 -2 -14 -3 -173 -1 -183 1 -5 1
-14 0 -20 -5 -23 -1 -145 5 -155 4 -6 28 -11 53 -10 26 0 67 0 91 1 25 0 48 2
52 5 4 2 10 0 14 -6 4 -6 10 -8 15 -5 5 3 42 5 82 5 40 -1 82 -1 93 -1 11 1
38 1 60 0 22 0 47 0 55 0 8 0 35 0 60 0 25 0 52 0 60 0 8 0 33 0 55 0 55 0 53
0 120 0 33 0 67 0 75 0 28 -1 165 11 192 17 15 3 40 7 57 9 68 9 201 51 286
91 74 36 181 98 195 114 3 4 16 13 29 22 46 32 148 136 199 204 51 69 145 243
145 270 0 8 3 14 7 14 4 0 7 6 8 13 0 6 3 21 6 32 63 232 66 439 10 635 -9 30
-17 60 -19 65 -1 6 -7 24 -14 40 -28 73 -46 112 -63 137 -10 14 -18 30 -18 35
0 36 -255 313 -288 313 -5 0 -18 9 -29 20 -50 46 -192 110 -373 168 -40 13
-175 34 -243 38 -34 1 -62 3 -62 4 0 2 -639 4 -762 2z m844 -455 c86 -14 206
-59 268 -101 49 -33 115 -98 154 -151 40 -53 85 -135 75 -135 -4 0 -1 -6 5
-14 24 -29 49 -184 46 -284 -4 -111 -9 -144 -36 -226 -62 -191 -211 -337 -404
-396 -98 -30 -121 -32 -381 -34 l-231 -1 0 670 c0 368 1 672 3 675 3 7 457 4
501 -3z"/>
<path d="M13576 12163 c-1 -2 -65 -3 -142 -4 l-139 0 1 -1110 c1 -637 5 -1114
10 -1119 11 -9 94 -18 94 -10 0 4 22 4 50 0 27 -3 54 -4 60 0 6 4 33 4 60 0
27 -4 54 -3 60 0 6 4 30 4 53 1 23 -3 57 -5 75 -3 l32 3 0 358 0 357 191 0
192 -1 43 -60 c23 -33 43 -64 43 -68 1 -4 10 -18 22 -30 11 -12 27 -37 36 -54
8 -18 19 -33 24 -33 5 0 9 -6 9 -13 0 -8 9 -22 20 -32 11 -10 20 -24 20 -31 0
-7 3 -14 8 -16 4 -1 45 -59 91 -128 47 -69 87 -127 90 -130 4 -3 12 -17 20
-32 8 -15 26 -41 40 -58 l26 -31 230 0 c377 0 336 -3 323 26 -6 14 -15 25 -19
25 -4 0 -10 8 -14 19 -5 16 -16 31 -55 78 -5 7 -10 14 -10 17 0 8 -109 166
-125 182 -8 8 -17 23 -20 34 -3 11 -11 20 -16 20 -5 0 -9 5 -9 12 0 6 -7 20
-17 30 -9 10 -21 27 -27 37 -6 11 -45 68 -86 128 -41 59 -87 127 -102 150
l-28 43 38 17 c20 9 40 17 44 17 4 1 13 7 20 14 6 6 16 12 21 12 37 0 224 174
247 230 7 17 17 30 22 30 5 0 6 5 3 10 -3 6 -1 10 6 10 7 0 9 3 6 7 -4 3 -3
11 2 17 7 9 33 78 36 96 0 3 7 30 15 60 23 88 18 287 -9 388 -22 87 -57 172
-75 184 -7 5 -7 8 -1 8 7 0 7 3 0 8 -6 4 -25 27 -44 52 -37 48 -132 133 -156
138 -8 2 -15 7 -15 11 0 10 -124 66 -167 76 -18 3 -33 11 -33 17 0 6 -2 9 -5
6 -3 -3 -34 1 -68 8 -34 8 -120 16 -192 20 -128 6 -804 11 -809 7z m839 -462
c126 -29 216 -108 241 -211 9 -34 12 -163 5 -175 -3 -5 -6 -12 -6 -15 -1 -13
-31 -77 -45 -94 -47 -57 -125 -106 -195 -122 -16 -4 -164 -8 -327 -10 l-298
-3 0 318 c0 175 2 320 4 322 10 10 574 1 621 -10z"/>
<path d="M15780 12162 l-75 -3 2 -1112 c1 -612 2 -1116 2 -1120 1 -4 16 -7 34
-7 17 0 55 1 82 1 28 0 57 0 65 0 38 -3 105 1 112 5 4 3 8 2 8 -3 0 -8 189 -7
223 1 9 2 17 1 17 -2 0 -4 57 -6 127 -4 71 2 135 3 143 3 88 0 158 0 170 0 8
0 35 0 60 0 25 0 52 0 60 0 8 -1 35 0 60 0 25 0 52 0 60 0 8 0 35 0 60 0 25 0
51 0 58 0 6 -1 18 -1 25 -2 6 0 37 0 67 1 30 1 60 1 65 0 6 -1 33 -2 61 -1
l50 1 0 223 -1 222 -530 2 c-291 2 -542 3 -557 3 l-28 0 1 887 c0 487 -4 890
-9 895 -9 9 -278 15 -412 10z"/>
<path d="M17875 12162 c-33 -2 -62 -7 -65 -12 -7 -12 -5 -2218 2 -2226 8 -8
466 -7 478 1 6 4 10 417 10 1121 l0 1114 -67 0 c-38 1 -120 2 -183 3 -63 1
-142 1 -175 -1z"/>
<path d="M19128 12160 l-173 -5 0 -1114 c0 -850 3 -1115 12 -1118 17 -7 373
-9 373 -2 0 3 23 3 50 -1 28 -4 53 -4 55 -1 2 4 3 152 3 331 1 179 1 332 1
340 1 9 59 76 130 149 l129 134 46 -64 c25 -35 50 -68 54 -74 4 -5 19 -26 32
-45 14 -19 27 -37 30 -40 17 -16 80 -109 80 -119 0 -6 4 -11 9 -11 4 0 28 -28
52 -62 24 -35 47 -67 51 -73 11 -13 109 -147 128 -175 8 -12 23 -31 32 -43 9
-12 53 -72 98 -134 l81 -112 77 -1 c76 -1 100 -1 125 1 6 0 32 0 57 0 25 0 52
-1 60 0 8 0 44 0 80 0 36 0 72 0 80 0 8 0 20 0 25 -1 6 -1 27 -2 48 -1 l38 1
-33 47 c-17 26 -38 54 -45 63 -7 8 -42 56 -78 105 -78 106 -76 104 -199 268
-53 71 -96 132 -96 137 0 5 -4 10 -8 12 -5 2 -53 64 -108 138 -54 74 -114 156
-134 181 -19 26 -43 57 -52 70 -39 55 -120 165 -133 182 -8 9 -15 22 -15 27 0
6 -4 10 -9 10 -5 0 -16 11 -25 25 -18 27 -41 -1 259 311 95 98 397 413 475
494 30 32 79 83 109 114 l53 56 -168 1 c-93 0 -227 0 -299 -1 l-130 -1 -33
-37 c-19 -20 -82 -88 -141 -151 -58 -63 -119 -129 -136 -147 -16 -18 -74 -79
-127 -136 -53 -56 -106 -114 -117 -127 -22 -25 -192 -208 -278 -299 -29 -30
-54 -60 -56 -66 -15 -41 -19 58 -20 481 l-2 478 -72 5 c-40 3 -150 3 -245 0z"/>
<path d="M21483 12162 l-93 -3 -1 -34 c-1 -65 0 -135 2 -142 1 -5 0 -12 -1
-18 -2 -12 -2 -206 1 -220 1 -5 1 -14 -1 -20 -2 -11 -2 -1006 1 -1020 1 -5 0
-14 -1 -20 -2 -12 -2 -206 1 -220 1 -5 1 -14 0 -20 -2 -8 -3 -440 -2 -502 1
-19 7 -21 69 -23 37 -1 73 -1 80 -1 6 1 18 1 25 1 6 1 309 1 672 0 363 0 683
-1 711 0 l51 0 1 225 0 225 -366 -1 c-202 0 -453 0 -558 0 l-191 1 -1 858 c0
471 -1 874 -1 894 l-1 37 -152 3 c-84 2 -195 2 -245 0z"/>
<path d="M26238 12162 l-148 -3 0 -1119 0 -1119 28 -3 c15 -2 46 0 69 3 24 3
45 4 48 1 6 -6 337 -4 343 3 3 3 6 164 6 358 l1 352 192 0 192 1 13 -26 c7
-14 16 -27 19 -30 5 -4 223 -324 269 -394 90 -138 176 -256 189 -260 18 -5 81
-9 96 -6 6 1 13 2 16 2 3 -1 27 -1 52 -1 26 -1 68 -2 95 -2 26 -1 53 -1 60 0
26 2 40 2 132 1 130 -2 124 -3 100 22 -11 12 -20 26 -20 31 0 4 -6 15 -12 22
-22 24 -29 35 -78 110 -10 17 -22 35 -27 40 -12 15 -126 183 -138 203 -5 9
-13 19 -16 22 -3 3 -43 61 -89 130 -47 69 -88 127 -92 128 -5 2 -8 8 -8 14 0
5 -11 24 -25 42 l-25 33 83 41 c45 22 95 51 112 64 48 37 148 140 168 173 24
40 78 155 82 174 2 9 8 34 13 56 10 34 24 150 23 180 -1 28 -10 135 -15 172
-9 68 -64 214 -85 228 -6 3 -9 11 -6 16 4 5 -1 12 -9 15 -9 3 -16 12 -16 18 0
29 -129 145 -208 187 -31 17 -61 35 -67 39 -5 5 -14 9 -20 9 -5 1 -37 10 -70
20 -33 11 -73 22 -90 25 -16 4 -41 9 -55 12 -64 13 -721 23 -1082 16z m972
-462 c158 -37 240 -133 246 -288 3 -83 -20 -171 -51 -194 -5 -4 -6 -8 -2 -8 5
0 -7 -15 -26 -34 -36 -35 -121 -81 -172 -92 -16 -4 -163 -8 -326 -10 l-295 -4
0 317 c0 175 3 320 7 323 18 12 564 4 619 -10z"/>
<path d="M28568 12160 l-46 -5 1 -1115 2 -1115 48 -5 c26 -3 52 -3 57 0 6 4
33 4 60 0 27 -4 54 -3 60 0 6 4 30 4 53 0 23 -3 53 -3 67 0 14 3 41 3 60 0 19
-3 46 -3 60 0 l25 5 0 1112 c0 611 -3 1114 -6 1118 -8 7 -378 12 -441 5z"/>
</g>
</svg>
